<mxfile host="65bd71144e">
    <diagram id="Oi234eodXuZNU3cH91IX" name="第 1 页">
        <mxGraphModel dx="2459" dy="1185" grid="1" gridSize="10" guides="1" tooltips="1" connect="1" arrows="1" fold="1" page="1" pageScale="1" pageWidth="827" pageHeight="1169" math="0" shadow="0">
            <root>
                <mxCell id="0"/>
                <mxCell id="1" parent="0"/>
                <mxCell id="13" style="edgeStyle=none;html=1;entryX=0.5;entryY=0;entryDx=0;entryDy=0;" parent="1" source="5" target="14" edge="1">
                    <mxGeometry relative="1" as="geometry">
                        <mxPoint x="450" y="650" as="targetPoint"/>
                    </mxGeometry>
                </mxCell>
                <mxCell id="5" value="monorepo管理工程" style="whiteSpace=wrap;html=1;fontSize=16;" parent="1" vertex="1">
                    <mxGeometry x="270" y="450" width="140" height="70" as="geometry"/>
                </mxCell>
                <mxCell id="35" style="edgeStyle=none;html=1;fontFamily=Helvetica;fontSize=16;" parent="1" source="14" edge="1">
                    <mxGeometry relative="1" as="geometry">
                        <mxPoint x="340" y="780" as="targetPoint"/>
                    </mxGeometry>
                </mxCell>
                <mxCell id="56" style="edgeStyle=none;html=1;fontFamily=Helvetica;fontSize=16;entryX=0;entryY=0.5;entryDx=0;entryDy=0;" parent="1" source="14" target="58" edge="1">
                    <mxGeometry relative="1" as="geometry">
                        <mxPoint x="520" y="640" as="targetPoint"/>
                    </mxGeometry>
                </mxCell>
                <mxCell id="14" value="&lt;font style=&quot;font-size: 16px&quot;&gt;data-visual&lt;/font&gt;" style="whiteSpace=wrap;html=1;" parent="1" vertex="1">
                    <mxGeometry x="280" y="610" width="120" height="60" as="geometry"/>
                </mxCell>
                <mxCell id="22" style="edgeStyle=none;html=1;entryX=0.5;entryY=0;entryDx=0;entryDy=0;fontFamily=Helvetica;fontSize=16;" parent="1" source="18" target="5" edge="1">
                    <mxGeometry relative="1" as="geometry"/>
                </mxCell>
                <mxCell id="18" value="&lt;font style=&quot;font-size: 16px&quot;&gt;lerna&lt;/font&gt;" style="ellipse;whiteSpace=wrap;html=1;fontFamily=Helvetica;fontSize=16;" parent="1" vertex="1">
                    <mxGeometry x="40" y="230" width="120" height="60" as="geometry"/>
                </mxCell>
                <mxCell id="23" style="edgeStyle=none;html=1;fontFamily=Helvetica;fontSize=16;" parent="1" source="19" edge="1">
                    <mxGeometry relative="1" as="geometry">
                        <mxPoint x="340" y="450" as="targetPoint"/>
                    </mxGeometry>
                </mxCell>
                <mxCell id="19" value="&lt;font style=&quot;font-size: 16px&quot;&gt;pnpm&lt;/font&gt;" style="ellipse;whiteSpace=wrap;html=1;fontFamily=Helvetica;fontSize=16;" parent="1" vertex="1">
                    <mxGeometry x="200" y="230" width="120" height="60" as="geometry"/>
                </mxCell>
                <mxCell id="24" style="edgeStyle=none;html=1;entryX=0.5;entryY=0;entryDx=0;entryDy=0;fontFamily=Helvetica;fontSize=16;" parent="1" source="20" target="5" edge="1">
                    <mxGeometry relative="1" as="geometry"/>
                </mxCell>
                <mxCell id="20" value="&lt;font style=&quot;font-size: 16px&quot;&gt;changelog&lt;/font&gt;" style="ellipse;whiteSpace=wrap;html=1;fontFamily=Helvetica;fontSize=16;" parent="1" vertex="1">
                    <mxGeometry x="354" y="230" width="120" height="60" as="geometry"/>
                </mxCell>
                <mxCell id="25" style="edgeStyle=none;html=1;entryX=0.5;entryY=0;entryDx=0;entryDy=0;fontFamily=Helvetica;fontSize=16;" parent="1" source="21" target="5" edge="1">
                    <mxGeometry relative="1" as="geometry"/>
                </mxCell>
                <mxCell id="21" value="&lt;font style=&quot;font-size: 16px&quot;&gt;workspace&lt;/font&gt;" style="ellipse;whiteSpace=wrap;html=1;fontFamily=Helvetica;fontSize=16;" parent="1" vertex="1">
                    <mxGeometry x="510" y="230" width="120" height="60" as="geometry"/>
                </mxCell>
                <mxCell id="31" style="edgeStyle=none;html=1;entryX=0;entryY=0.5;entryDx=0;entryDy=0;fontFamily=Helvetica;fontSize=16;" parent="1" source="27" target="30" edge="1">
                    <mxGeometry relative="1" as="geometry"/>
                </mxCell>
                <mxCell id="27" value="vite-plugin-federation" style="ellipse;whiteSpace=wrap;html=1;fontFamily=Helvetica;fontSize=16;" parent="1" vertex="1">
                    <mxGeometry x="-230" y="370" width="120" height="60" as="geometry"/>
                </mxCell>
                <mxCell id="32" style="edgeStyle=none;html=1;fontFamily=Helvetica;fontSize=16;entryX=0;entryY=0.5;entryDx=0;entryDy=0;" parent="1" source="28" target="30" edge="1">
                    <mxGeometry relative="1" as="geometry">
                        <mxPoint x="-20" y="485" as="targetPoint"/>
                    </mxGeometry>
                </mxCell>
                <mxCell id="28" value="vue3" style="ellipse;whiteSpace=wrap;html=1;fontFamily=Helvetica;fontSize=16;" parent="1" vertex="1">
                    <mxGeometry x="-230" y="455" width="120" height="60" as="geometry"/>
                </mxCell>
                <mxCell id="33" style="edgeStyle=none;html=1;exitX=1;exitY=0.5;exitDx=0;exitDy=0;entryX=-0.033;entryY=0.633;entryDx=0;entryDy=0;entryPerimeter=0;fontFamily=Helvetica;fontSize=16;" parent="1" source="29" target="30" edge="1">
                    <mxGeometry relative="1" as="geometry"/>
                </mxCell>
                <mxCell id="29" value="vite" style="ellipse;whiteSpace=wrap;html=1;fontFamily=Helvetica;fontSize=16;" parent="1" vertex="1">
                    <mxGeometry x="-230" y="540" width="120" height="60" as="geometry"/>
                </mxCell>
                <mxCell id="34" style="edgeStyle=none;html=1;entryX=0;entryY=0.5;entryDx=0;entryDy=0;fontFamily=Helvetica;fontSize=16;" parent="1" source="30" target="14" edge="1">
                    <mxGeometry relative="1" as="geometry"/>
                </mxCell>
                <mxCell id="30" value="技术栈" style="whiteSpace=wrap;html=1;fontFamily=Helvetica;fontSize=16;" parent="1" vertex="1">
                    <mxGeometry x="-10" y="455" width="120" height="60" as="geometry"/>
                </mxCell>
                <mxCell id="48" style="edgeStyle=none;html=1;entryX=0.5;entryY=0;entryDx=0;entryDy=0;fontFamily=Helvetica;fontSize=16;exitX=0;exitY=1;exitDx=0;exitDy=0;" parent="1" source="36" target="39" edge="1">
                    <mxGeometry relative="1" as="geometry"/>
                </mxCell>
                <mxCell id="49" style="edgeStyle=none;html=1;entryX=0.5;entryY=0;entryDx=0;entryDy=0;fontFamily=Helvetica;fontSize=16;" parent="1" source="36" target="41" edge="1">
                    <mxGeometry relative="1" as="geometry"/>
                </mxCell>
                <mxCell id="50" style="edgeStyle=none;html=1;entryX=0.5;entryY=0;entryDx=0;entryDy=0;fontFamily=Helvetica;fontSize=16;exitX=0.75;exitY=1;exitDx=0;exitDy=0;" parent="1" source="36" target="42" edge="1">
                    <mxGeometry relative="1" as="geometry"/>
                </mxCell>
                <mxCell id="51" style="edgeStyle=none;html=1;exitX=1;exitY=1;exitDx=0;exitDy=0;entryX=0.5;entryY=0;entryDx=0;entryDy=0;fontFamily=Helvetica;fontSize=16;" parent="1" source="36" target="44" edge="1">
                    <mxGeometry relative="1" as="geometry"/>
                </mxCell>
                <mxCell id="36" value="工程架构" style="whiteSpace=wrap;html=1;fontFamily=Helvetica;fontSize=16;" parent="1" vertex="1">
                    <mxGeometry x="280" y="780" width="120" height="60" as="geometry"/>
                </mxCell>
                <mxCell id="39" value="使用端host" style="whiteSpace=wrap;html=1;fontFamily=Helvetica;fontSize=16;" parent="1" vertex="1">
                    <mxGeometry x="40" y="940" width="120" height="60" as="geometry"/>
                </mxCell>
                <mxCell id="41" value="服务端remote" style="whiteSpace=wrap;html=1;fontFamily=Helvetica;fontSize=16;" parent="1" vertex="1">
                    <mxGeometry x="200" y="940" width="120" height="60" as="geometry"/>
                </mxCell>
                <mxCell id="42" value="组件测试play" style="whiteSpace=wrap;html=1;fontFamily=Helvetica;fontSize=16;" parent="1" vertex="1">
                    <mxGeometry x="370" y="940" width="120" height="60" as="geometry"/>
                </mxCell>
                <mxCell id="43" value="wgms三线组件" style="whiteSpace=wrap;html=1;fontFamily=Helvetica;fontSize=16;" parent="1" vertex="1">
                    <mxGeometry x="760" y="990" width="120" height="60" as="geometry"/>
                </mxCell>
                <mxCell id="52" style="edgeStyle=none;html=1;entryX=0;entryY=0.5;entryDx=0;entryDy=0;fontFamily=Helvetica;fontSize=16;exitX=1;exitY=0;exitDx=0;exitDy=0;" parent="1" source="44" target="46" edge="1">
                    <mxGeometry relative="1" as="geometry"/>
                </mxCell>
                <mxCell id="53" style="edgeStyle=none;html=1;entryX=0;entryY=0.5;entryDx=0;entryDy=0;fontFamily=Helvetica;fontSize=16;" parent="1" source="44" target="45" edge="1">
                    <mxGeometry relative="1" as="geometry"/>
                </mxCell>
                <mxCell id="54" style="edgeStyle=none;html=1;entryX=0;entryY=0.5;entryDx=0;entryDy=0;fontFamily=Helvetica;fontSize=16;" parent="1" source="44" target="43" edge="1">
                    <mxGeometry relative="1" as="geometry"/>
                </mxCell>
                <mxCell id="55" style="edgeStyle=none;html=1;exitX=1;exitY=1;exitDx=0;exitDy=0;entryX=0;entryY=0.5;entryDx=0;entryDy=0;fontFamily=Helvetica;fontSize=16;" parent="1" source="44" target="47" edge="1">
                    <mxGeometry relative="1" as="geometry"/>
                </mxCell>
                <mxCell id="44" value="packages" style="whiteSpace=wrap;html=1;fontFamily=Helvetica;fontSize=16;" parent="1" vertex="1">
                    <mxGeometry x="530" y="940" width="120" height="60" as="geometry"/>
                </mxCell>
                <mxCell id="45" value="aims二线组件" style="whiteSpace=wrap;html=1;fontFamily=Helvetica;fontSize=16;" parent="1" vertex="1">
                    <mxGeometry x="760" y="900" width="120" height="60" as="geometry"/>
                </mxCell>
                <mxCell id="46" value="ipes一线组件" style="whiteSpace=wrap;html=1;fontFamily=Helvetica;fontSize=16;" parent="1" vertex="1">
                    <mxGeometry x="760" y="820" width="120" height="60" as="geometry"/>
                </mxCell>
                <mxCell id="47" value="bmp中台组件" style="whiteSpace=wrap;html=1;fontFamily=Helvetica;fontSize=16;" parent="1" vertex="1">
                    <mxGeometry x="760" y="1080" width="120" height="60" as="geometry"/>
                </mxCell>
                <mxCell id="62" style="edgeStyle=none;html=1;entryX=0;entryY=0.5;entryDx=0;entryDy=0;fontFamily=Helvetica;fontSize=16;exitX=1;exitY=0.5;exitDx=0;exitDy=0;" parent="1" source="58" target="59" edge="1">
                    <mxGeometry relative="1" as="geometry"/>
                </mxCell>
                <mxCell id="63" style="edgeStyle=none;html=1;exitX=1;exitY=0.5;exitDx=0;exitDy=0;entryX=0;entryY=0.5;entryDx=0;entryDy=0;fontFamily=Helvetica;fontSize=16;" parent="1" source="58" target="61" edge="1">
                    <mxGeometry relative="1" as="geometry"/>
                </mxCell>
                <mxCell id="67" style="edgeStyle=none;html=1;entryX=0;entryY=0.5;entryDx=0;entryDy=0;fontFamily=Helvetica;fontSize=16;exitX=1;exitY=0.5;exitDx=0;exitDy=0;" parent="1" source="58" target="66" edge="1">
                    <mxGeometry relative="1" as="geometry"/>
                </mxCell>
                <mxCell id="70" style="edgeStyle=none;html=1;exitX=1;exitY=0.5;exitDx=0;exitDy=0;entryX=0;entryY=0.5;entryDx=0;entryDy=0;fontFamily=Helvetica;fontSize=16;" parent="1" source="58" target="68" edge="1">
                    <mxGeometry relative="1" as="geometry"/>
                </mxCell>
                <mxCell id="58" value="CI发布" style="whiteSpace=wrap;html=1;fontFamily=Helvetica;fontSize=16;" parent="1" vertex="1">
                    <mxGeometry x="510" y="610" width="110" height="60" as="geometry"/>
                </mxCell>
                <mxCell id="59" value="线上demo网站&lt;br&gt;http://ued.fpi-inc.site/data-visual-demo&amp;nbsp;" style="whiteSpace=wrap;html=1;fontFamily=Helvetica;fontSize=16;" parent="1" vertex="1">
                    <mxGeometry x="700" y="630" width="380" height="60" as="geometry"/>
                </mxCell>
                <mxCell id="61" value="模块联邦服务&lt;br&gt;http://ued.fpi-inc.site/data-visual&amp;nbsp;" style="whiteSpace=wrap;html=1;fontFamily=Helvetica;fontSize=16;" parent="1" vertex="1">
                    <mxGeometry x="700" y="720" width="380" height="60" as="geometry"/>
                </mxCell>
                <mxCell id="66" value="npm包&lt;br&gt;https://www.npmjs.com/package/@ued_fpi/data-visual" style="whiteSpace=wrap;html=1;fontFamily=Helvetica;fontSize=16;" parent="1" vertex="1">
                    <mxGeometry x="700" y="540" width="380" height="60" as="geometry"/>
                </mxCell>
                <mxCell id="68" value="文档站点&lt;br&gt;http://ued.fpi-inc.site/fpi-component/page/component/screen/quickstart.html" style="whiteSpace=wrap;html=1;fontFamily=Helvetica;fontSize=16;" parent="1" vertex="1">
                    <mxGeometry x="700" y="460" width="380" height="60" as="geometry"/>
                </mxCell>
                <mxCell id="72" style="edgeStyle=none;html=1;entryX=-0.017;entryY=0.633;entryDx=0;entryDy=0;entryPerimeter=0;fontFamily=Helvetica;fontSize=16;" parent="1" source="71" target="14" edge="1">
                    <mxGeometry relative="1" as="geometry"/>
                </mxCell>
                <mxCell id="71" value="文档支持" style="whiteSpace=wrap;html=1;fontFamily=Helvetica;fontSize=16;" parent="1" vertex="1">
                    <mxGeometry x="-10" y="750" width="120" height="60" as="geometry"/>
                </mxCell>
                <mxCell id="75" style="edgeStyle=none;html=1;entryX=0;entryY=0.5;entryDx=0;entryDy=0;fontFamily=Helvetica;fontSize=16;" parent="1" source="73" target="71" edge="1">
                    <mxGeometry relative="1" as="geometry"/>
                </mxCell>
                <mxCell id="73" value="vitepress" style="ellipse;whiteSpace=wrap;html=1;fontFamily=Helvetica;fontSize=16;" parent="1" vertex="1">
                    <mxGeometry x="-230" y="720" width="120" height="60" as="geometry"/>
                </mxCell>
                <mxCell id="76" style="edgeStyle=none;html=1;exitX=1;exitY=0.5;exitDx=0;exitDy=0;entryX=-0.033;entryY=0.65;entryDx=0;entryDy=0;entryPerimeter=0;fontFamily=Helvetica;fontSize=16;" parent="1" source="74" target="71" edge="1">
                    <mxGeometry relative="1" as="geometry"/>
                </mxCell>
                <mxCell id="74" value="远端加载" style="ellipse;whiteSpace=wrap;html=1;fontFamily=Helvetica;fontSize=16;" parent="1" vertex="1">
                    <mxGeometry x="-230" y="800" width="120" height="60" as="geometry"/>
                </mxCell>
            </root>
        </mxGraphModel>
    </diagram>
</mxfile>